<svg width="101" height="66" viewBox="0 0 101 66" fill="none" xmlns="http://www.w3.org/2000/svg">
<path d="M54.6127 28.5051C53.2965 22.3405 56.7223 17.2386 63.7848 17.2386C67.0936 17.2386 70.2557 18.7749 71.7966 20.3653L68.9991 24.4093C67.7287 23.3582 66.1826 22.7646 64.5805 22.7128C61.2464 22.7128 59.7903 25.1786 60.4393 28.2116C60.9391 30.5566 62.7667 31.7156 64.5965 31.7156C65.0994 31.7362 65.6001 31.6351 66.0617 31.4197L66.2062 29.3977H63.3239L63.4156 25.3537H71.8631L71.4045 34.9705C69.9117 36.0752 67.6072 36.9111 65.0757 36.9111C60.7167 36.916 55.8762 34.4354 54.6127 28.5051Z" fill="black"/>
<path d="M73.2045 32.8226C72.5418 29.723 74.3671 27.701 78.2285 27.701C79.3142 27.7113 80.3938 27.8771 81.4387 28.1942L81.4548 28.0315C81.4674 27.7833 81.4489 27.5345 81.3998 27.2917C81.2048 26.3769 80.4183 25.864 78.9898 25.864C77.7378 25.864 76.2382 26.1328 75.3921 26.51L73.7548 22.36C75.1306 21.8669 77.2494 21.5784 79.2283 21.5784C83.7661 21.5784 86.2678 23.4376 86.8961 26.3769C87.0377 27.048 87.1001 27.7356 87.0818 28.4235L86.7998 36.5213H81.1108L81.1705 35.0418C80.1776 36.1465 79.2994 36.8468 77.7195 36.8468C75.6145 36.8345 73.7434 35.3525 73.2045 32.8226ZM81.4364 30.9905L81.4548 30.3691C81.0997 30.2655 80.7336 30.2116 80.3656 30.2088C78.9371 30.2088 78.2904 30.9485 78.561 32.2037C78.7215 32.9582 79.2099 33.3626 79.735 33.3626C80.6385 33.3577 81.402 32.359 81.4364 30.9855V30.9905Z" fill="black"/>
<path d="M87.5793 34.4097L89.3404 30.9058C90.7919 31.9587 93.1239 32.9006 94.6785 32.9006C95.2541 32.9006 95.4283 32.654 95.3664 32.3877C95.2632 31.8946 94.784 31.6603 92.9358 30.9871C90.5465 30.1241 88.7878 29.0465 88.2925 26.7286C87.6665 23.7893 89.4734 21.4443 93.5848 21.4443C96.3364 21.4443 98.8587 22.3345 100.482 23.4663L98.7234 26.9703C97.5035 26.1886 95.582 25.4069 94.2291 25.4069C93.6008 25.4069 93.3669 25.5968 93.4288 25.9001C93.516 26.3045 93.8507 26.4648 95.6691 27.1133C98.0286 27.9492 99.9502 28.9725 100.503 31.5518C101.026 34.0053 100.03 36.8632 95.4169 36.8632C92.6407 36.8623 89.9222 36.0113 87.5793 34.4097Z" fill="black"/>
<path d="M64.5277 54.7095C63.3637 55.5246 62.0024 55.9533 60.6135 55.9424C57.3895 55.9424 55.2341 54.3125 54.6998 51.8047C54.1266 49.1096 55.8257 47.7928 57.6807 47.0827C57.2027 46.3973 56.8573 45.6158 56.6649 44.7845C56.1811 42.5085 57.5202 40.7726 60.1044 40.7726C62.6497 40.7726 64.7501 42.4247 65.2247 44.6587C65.6833 46.8336 64.4726 47.9605 63.0212 48.6287L64.1493 49.9036C64.4199 49.4449 64.7019 48.9419 64.9748 48.3994L67.9557 50.3228C67.6394 51.115 67.2343 51.8627 66.7496 52.5494L67.8961 53.8662L65.587 55.9769L64.5277 54.7095ZM61.9274 52.076L59.7697 49.5288C59.0818 49.9258 58.6942 50.488 58.88 51.3658C59.0313 52.076 59.6779 52.5568 60.5149 52.5568C61.0189 52.5456 61.5092 52.3786 61.9274 52.076ZM61.8976 44.7426C61.8602 44.4789 61.7373 44.2379 61.5505 44.0623C61.3638 43.8867 61.1252 43.7879 60.8772 43.7834C60.3337 43.7834 60.0563 44.3037 60.2076 45.0163C60.322 45.5043 60.5315 45.9607 60.8222 46.3552C61.5766 45.9755 62.0581 45.4947 61.8976 44.7426Z" fill="black"/>
<path d="M73.9153 41.0638H78.4028L81.1314 46.2026L84.2316 41.0638H89.2235L88.6915 55.6887H84.1651L84.4242 48.4392L81.1062 53.6421H81.0283L78.0909 48.4392L77.8318 55.6887H73.3765L73.9153 41.0638Z" fill="black"/>
<path d="M96.0772 52.6219C96.795 52.6219 97.4095 52.3063 98.0171 51.7022L100.569 54.1039C99.6108 55.253 98.2762 55.9631 96.4212 55.9631C93.1949 55.9631 90.7827 53.9362 90.1452 50.9501C89.4046 47.4806 91.0739 44.0137 95.1165 44.0137C98.6133 44.0137 100.322 46.5633 100.833 48.9651C100.985 49.6627 101.033 50.3816 100.977 51.0956H94.1603C94.2695 51.5473 94.5192 51.9451 94.8681 52.2229C95.2169 52.5006 95.6436 52.6414 96.0772 52.6219ZM96.9761 49.007C96.9945 48.8422 96.9852 48.6751 96.9486 48.5138C96.8723 48.173 96.6929 47.869 96.4384 47.6498C96.184 47.4307 95.869 47.3087 95.543 47.3031C94.8826 47.3031 94.1213 47.742 93.986 49.0169L96.9761 49.007Z" fill="black"/>
<path d="M33.7073 7.97424H32.0036L34.7094 0.52002H8.11728L10.9767 7.97424H9.11244C7.9152 7.97424 6.72969 8.22795 5.62367 8.72087C4.51765 9.21379 3.5128 9.93626 2.66654 10.847C1.82028 11.7577 1.14921 12.8388 0.69167 14.0286C0.234132 15.2184 -0.000901209 16.4934 2.59676e-06 17.7809V55.6808C2.59676e-06 58.2797 0.960061 60.7722 2.66897 62.6099C4.37789 64.4476 6.69567 65.48 9.11244 65.48H33.7073C36.1241 65.48 38.4419 64.4476 40.1508 62.6099C41.8597 60.7722 42.8198 58.2797 42.8198 55.6808V17.7809C42.8207 16.4934 42.5856 15.2184 42.1281 14.0286C41.6706 12.8388 40.9995 11.7577 40.1532 10.847C39.307 9.93626 38.3021 9.21379 37.1961 8.72087C36.0901 8.22795 34.9046 7.97424 33.7073 7.97424ZM30.4971 2.88969L29.2199 6.14952H13.2651L12.1782 2.88969H30.4971Z" fill="#39B54A"/>
<path d="M23.7122 16.5477C22.9243 16.3963 22.1256 16.3187 21.3252 16.3159C21.1899 16.3159 21.0569 16.3159 20.9239 16.3159C11.667 16.6118 5.96196 27.3826 10.2476 36.2177L21.8067 57.2192L32.7398 35.8675C36.3857 27.7993 31.9258 18.0963 23.7122 16.5477ZM21.4192 37.4876C20.109 37.4891 18.8278 37.0727 17.7376 36.2911C16.6475 35.5096 15.7973 34.3979 15.2947 33.0968C14.792 31.7956 14.6595 30.3634 14.9137 28.9813C15.168 27.5991 15.7977 26.3291 16.7232 25.3317C17.6487 24.3344 18.8284 23.6546 20.1132 23.3783C21.3979 23.102 22.73 23.2416 23.941 23.7794C25.152 24.3173 26.1875 25.2292 26.9166 26.3999C27.6456 27.5706 28.0355 28.9474 28.0368 30.3564C28.0371 31.292 27.866 32.2185 27.5332 33.0829C27.2004 33.9474 26.7124 34.7328 26.0972 35.3944C25.482 36.056 24.7516 36.5807 23.9477 36.9386C23.1439 37.2965 22.2823 37.4805 21.4123 37.4802L21.4192 37.4876Z" fill="#FCEE21"/>
</svg>
